<svg width="272" height="256" viewBox="0 0 272 256" fill="none" xmlns="http://www.w3.org/2000/svg">
<path d="M239.744 129.667C234.484 118.8 236.771 109.337 230.257 99.0445L168.845 79.7177C170.524 81.739 169.144 88.7163 169.156 91.4437C169.173 95.413 170.569 100.916 169.817 104.719C168.392 111.931 175.59 121.702 179.624 127.291C186.978 137.477 173.306 140.271 165.407 141.009C163.313 141.205 161.286 140.416 159.288 140.021C157.186 139.605 154.869 140.944 153.069 140.505C149.658 139.674 147.097 140.67 143.538 140.931C139.762 141.207 136.572 143.567 132.724 143.584C131.442 143.59 129.83 144.071 128.524 144.167C127.876 144.214 124.333 144.441 123.946 144.644C120.152 146.63 116.198 145.138 112.177 146.574C109.987 147.356 108.389 146.654 106.314 146.244C103.894 145.766 101.764 147.113 99.4889 147.554C93.7487 148.669 88.3508 147.357 82.6127 147.849C79.8113 148.089 76.932 149.461 74.1012 149.268C71.9724 149.122 70.0378 147.709 67.7625 148.365C58.8161 150.946 50.0784 148.889 47.8592 138.835C45.4579 127.955 39.0006 128.633 30.0397 124.698C24.6805 122.344 19.4515 126.425 17.175 131.608C12.6446 141.923 3.73094 155.711 5.44017 167.169C6.78607 176.191 18.6889 174.097 24.9579 174.952C28.5652 175.444 32.6866 176.101 36.0594 177.583C38.6321 178.713 40.875 179.192 43.5542 179.722C46.0761 180.22 49.3595 181.934 51.8952 181.868C58.0402 181.708 63.5096 183.304 69.4384 184.476C81.3917 186.839 94.2622 185.79 106.342 187.214C119.41 188.753 132.571 189.784 145.674 190.775C160.369 191.887 174.197 193.881 188.927 193.146C201.743 192.507 218.618 189.373 228.636 180.793C232.645 177.36 234.287 171.933 236.344 167.25C237.927 163.644 240.89 159.145 241.063 155.124C241.427 146.636 243.645 137.727 239.744 129.667Z" fill="#FFF7AB"/>
<path d="M224.216 76.1855C221.671 70.3094 224.179 67.5946 217.964 63.0641L161.798 59.1476C164.141 61.2685 163.248 64.461 163.65 67.3639C163.91 69.238 163.263 74.0693 163.951 75.3839C166.113 79.515 161.539 87.9511 163.412 91.5304C165.993 96.4609 167.574 97.727 172.791 100.018C176.637 101.707 185.67 100.58 190.105 100.523C197.688 100.426 204.967 103.004 212.244 103.997C216.69 104.603 227.591 107.526 230.219 102.305C233.299 96.1873 231.389 91.9108 227.117 86.9863C224.886 84.4144 225.613 79.4126 224.216 76.1855Z" fill="#FF7171"/>
<path d="M224.216 76.1855C221.671 70.3094 224.179 67.5946 217.964 63.0641L161.798 59.1476C164.141 61.2685 163.248 64.461 163.65 67.3639C163.91 69.238 163.263 74.0693 163.951 75.3839C166.113 79.515 161.539 87.9511 163.412 91.5304C165.993 96.4609 167.574 97.727 172.791 100.018C176.637 101.707 185.67 100.58 190.105 100.523C197.688 100.426 204.967 103.004 212.244 103.997C216.69 104.603 227.591 107.526 230.219 102.305C233.299 96.1873 231.389 91.9108 227.117 86.9863C224.886 84.4144 225.613 79.4126 224.216 76.1855Z" fill="url(#paint0_linear)"/>
<defs>
<linearGradient id="paint0_linear" x1="195.984" y1="62" x2="195.984" y2="103" gradientUnits="userSpaceOnUse">
<stop stop-color="#EAD8D8" stop-opacity="0"/>
<stop offset="0.484375" stop-color="#EF0000" stop-opacity="0.331313"/>
<stop offset="0.927083" stop-color="#FF2020" stop-opacity="0.82"/>
</linearGradient>
</defs>
</svg>
