<svg width="272" height="256" viewBox="0 0 272 256" fill="none" xmlns="http://www.w3.org/2000/svg">
<path d="M32.2399 129.667C37.4995 118.8 35.213 109.337 41.7269 99.0445L103.139 79.7177C101.46 81.739 102.84 88.7163 102.828 91.4437C102.811 95.4131 101.415 100.916 102.166 104.719C103.592 111.931 96.3934 121.702 92.3594 127.291C85.0061 137.477 98.6777 140.271 106.576 141.009C108.671 141.205 110.698 140.416 112.695 140.021C114.798 139.605 117.114 140.944 118.915 140.505C122.326 139.674 124.887 140.67 128.446 140.931C132.222 141.207 135.412 143.567 139.259 143.584C140.542 143.59 142.153 144.071 143.459 144.167C144.108 144.214 147.65 144.441 148.038 144.644C151.832 146.63 155.786 145.138 159.807 146.574C161.997 147.356 163.595 146.654 165.67 146.244C168.09 145.766 170.22 147.113 172.495 147.555C178.235 148.669 183.633 147.357 189.371 147.849C192.172 148.089 195.052 149.462 197.883 149.268C200.011 149.122 201.946 147.709 204.221 148.365C213.168 150.946 221.905 148.889 224.125 138.835C226.526 127.955 232.983 128.633 241.944 124.698C247.303 122.344 252.532 126.425 254.809 131.608C259.339 141.923 268.253 155.711 266.544 167.169C265.198 176.191 253.295 174.097 247.026 174.952C243.419 175.444 239.297 176.101 235.924 177.583C233.352 178.713 231.109 179.192 228.43 179.722C225.908 180.22 222.624 181.934 220.089 181.868C213.944 181.708 208.474 183.304 202.545 184.476C190.592 186.839 177.722 185.79 165.642 187.214C152.573 188.753 139.412 189.784 126.31 190.775C111.615 191.887 97.7867 193.881 83.0563 193.146C70.2406 192.507 53.3659 189.373 43.3481 180.793C39.3388 177.36 37.697 171.933 35.64 167.25C34.0565 163.644 31.0939 159.145 30.9211 155.124C30.5563 146.636 28.3387 137.727 32.2399 129.667Z" fill="#FFF7AB"/>
<path d="M47.7683 76.1855C50.3123 70.3094 47.8048 67.5946 54.0195 63.0641L110.186 59.1476C107.842 61.2685 108.736 64.461 108.333 67.3639C108.074 69.238 108.721 74.0693 108.033 75.3839C105.871 79.515 110.445 87.9511 108.572 91.5304C105.991 96.4609 104.41 97.727 99.193 100.018C95.3469 101.707 86.314 100.58 81.8789 100.523C74.2958 100.426 67.0167 103.004 59.7402 103.997C55.2939 104.603 44.3932 107.526 41.7646 102.305C38.6847 96.1873 40.5944 91.9108 44.8666 86.9863C47.0978 84.4144 46.3711 79.4126 47.7683 76.1855Z" fill="#FF7171"/>
<path d="M47.7683 76.1855C50.3123 70.3094 47.8048 67.5946 54.0195 63.0641L110.186 59.1476C107.842 61.2685 108.736 64.461 108.333 67.3639C108.074 69.238 108.721 74.0693 108.033 75.3839C105.871 79.515 110.445 87.9511 108.572 91.5304C105.991 96.4609 104.41 97.727 99.193 100.018C95.3469 101.707 86.314 100.58 81.8789 100.523C74.2958 100.426 67.0167 103.004 59.7402 103.997C55.2939 104.603 44.3932 107.526 41.7646 102.305C38.6847 96.1873 40.5944 91.9108 44.8666 86.9863C47.0978 84.4144 46.3711 79.4126 47.7683 76.1855Z" fill="url(#paint0_linear)"/>
<defs>
<linearGradient id="paint0_linear" x1="76" y1="62" x2="76" y2="103" gradientUnits="userSpaceOnUse">
<stop stop-color="#EAD8D8" stop-opacity="0"/>
<stop offset="0.484375" stop-color="#EF0000" stop-opacity="0.331313"/>
<stop offset="0.927083" stop-color="#FF2020" stop-opacity="0.82"/>
</linearGradient>
</defs>
</svg>
