<svg width="179" height="340" viewBox="0 0 179 340" fill="none" xmlns="http://www.w3.org/2000/svg">
<path d="M62 108.789C61.7795 108.461 61.5565 108.134 61.3313 107.806C55.0022 98.6031 46.9297 89.3309 44 78.3444C42.8658 74.091 39.5709 70.3569 38.2222 66.0111C37.0284 62.1642 38 56.8249 38 52.7889C38 47.3446 41.1603 44.1759 43.4445 39.4C45.0782 35.9839 49.1496 29.6416 52.4445 27.8444C56.2676 25.7591 59.4032 22.3656 63.5556 20.2333C69.9934 16.9274 77.3982 13.6181 84.4445 12.0111C98.828 8.73062 113.127 3.1965 128 1.84442C134.204 1.28046 148.022 -1.97438 153.778 1.78886C159.571 5.57688 168.04 5.48267 172.556 11.2889C174.472 13.753 176 13.4882 176 16.7889C176 19.6212 175.755 21.3701 173.778 23.5666C172.486 25.0016 170.936 24.6402 169.5 25.7889C167.374 27.4895 167 29.7595 167 32.2889V39.7889C167 44.1084 165.263 46.7401 164.222 50.7889C162.766 56.4531 160.392 66.4281 155.5 70.2333C147.956 76.1011 140.132 82.4463 133.222 89.1222C128.287 93.8901 121.685 97.4394 115.611 100.344C110 103.028 104.77 107.213 98.8889 109.733C91.0397 113.097 81.2242 114.632 73 116.567C69.9628 117.281 62 113.78 62 108.789Z" fill="#BD30D5"/>
<path d="M64.7099 114.787C70.4376 121.26 64.7099 125.788 64.7099 125.788C67.8085 131.041 79.9 131.702 85.4545 132.844C90.2591 133.831 93.2862 138.495 97.6457 140.011C101.79 141.452 106.359 141.789 110.722 141.789C115.436 141.789 119.698 140.789 124.388 140.789C129.004 140.789 124.768 133.32 127.14 131.788C128.557 130.873 129.17 128.64 130.237 127.232C132.093 124.785 134.962 123.787 137.66 123.787H149.655C155.849 123.787 168.236 124.368 168.236 114.787C168.236 106.489 165.299 90.6383 175.118 89.7845C180.67 89.3019 178.734 83.7863 178.019 79.3392C177.067 73.4238 173.231 71.72 169.514 68.2828C165.379 64.4586 166.467 59.4257 166.467 53.7816V30.7797C166.467 21.8455 137.05 25.4595 131.958 25.7792C126.469 26.1239 118.608 39.4907 117.407 44.3363C115.415 52.3797 117.677 61.5337 116.866 69.7829C116.214 76.4149 113.881 82.7987 108.755 77.0057C106.566 74.5316 102.673 70.8109 101.185 67.7827C97.1371 59.5474 89.7386 44.2561 79.5556 51.7814C73.779 56.0503 68.2493 57.94 68.2493 66.3382C68.2493 72.0067 70.9038 75.6961 70.9038 81.2838C70.9038 86.5385 74.4985 87.9252 76.2128 92.2848C78.3394 97.6927 73.2894 101.786 68.6917 101.786C65.3371 101.786 58.0544 107.264 64.7099 114.787Z" fill="#FFF7AB"/>
<path d="M42.691 133.289C51.0373 131.474 56.6938 129.255 64.0799 124.789L130.08 140.789C133.31 144.019 137.032 145.933 140.302 149.567C143.005 152.57 146.015 154.655 148.58 157.733C155.773 166.365 166.08 176.787 166.08 188.844C166.08 197.754 166.911 207.087 166.024 215.956C165.26 223.603 165.123 233.711 162.858 241.011C161.652 244.897 161.547 249.153 159.524 252.567C158.47 254.346 158.968 256.657 157.858 258.567C156.932 260.159 155.409 261.242 154.58 262.9C152.337 267.387 151.334 272.394 148.58 276.678C147.118 278.952 144.858 281.646 143.858 284.011C140.911 290.975 136.632 297.219 132.635 303.567C129.885 307.935 125.793 314.817 124.135 319.789C121.89 326.527 115.432 343.338 106.524 339.289C87.0971 330.458 66.7268 325.987 45.5799 322.733C38.6389 321.665 32.7654 320.789 25.5243 320.789H9.0799C5.6114 320.789 -1.03 322.533 0.135459 317.289C0.671513 314.877 2.0799 314.059 2.0799 311.233C2.0799 309.585 2.96895 307.039 4.0799 305.789C11.5749 297.357 12.1741 285.037 16.5799 275.344C21.2771 265.011 19.0799 251.156 19.0799 239.789C19.0799 233.636 18.4597 230.755 16.0799 225.4C14.3084 221.414 15.0799 216.194 15.0799 211.789V195.4C15.0799 191.532 14.1319 186.24 15.8577 182.789C17.2544 179.995 19.0843 179.52 19.8577 176.233C20.3147 174.291 19.5922 172.067 20.5799 170.289C22.5247 166.788 22.9373 159.558 23.0799 155.567C23.4073 146.399 27.1446 142.208 33.9688 136.9C36.7292 134.753 39.1936 134.049 42.691 133.289Z" fill="#FF7171"/>
</svg>
