<svg width="179" height="340" viewBox="0 0 179 340" fill="none" xmlns="http://www.w3.org/2000/svg">
<path d="M116.984 108.789C117.204 108.461 117.427 108.134 117.653 107.806C123.982 98.6031 132.054 89.3309 134.984 78.3444C136.118 74.091 139.413 70.3569 140.762 66.0111C141.955 62.1642 140.984 56.8249 140.984 52.7889C140.984 47.3446 137.823 44.1759 135.539 39.4C133.906 35.9839 129.834 29.6416 126.539 27.8444C122.716 25.7591 119.581 22.3656 115.428 20.2333C108.99 16.9274 101.586 13.6181 94.5393 12.0111C80.1557 8.73062 65.8567 3.1965 50.9837 1.84442C44.7803 1.28046 30.9615 -1.97438 25.206 1.78886C19.4125 5.57687 10.9441 5.48267 6.42819 11.2889C4.51163 13.753 2.98375 13.4882 2.98375 16.7889C2.98375 19.6212 3.22911 21.3701 5.20596 23.5666C6.49745 25.0016 8.04793 24.6402 9.48375 25.7889C11.6095 27.4895 11.9837 29.7595 11.9837 32.2889V39.7889C11.9837 44.1084 13.7204 46.7401 14.7615 50.7889C16.218 56.4531 18.5913 66.4281 23.4837 70.2333C31.028 76.1011 38.8513 82.4463 45.7615 89.1222C50.6968 93.8901 57.2986 97.4394 63.3726 100.344C68.9833 103.028 74.2137 107.213 80.0949 109.733C87.944 113.097 97.7596 114.632 105.984 116.567C109.021 117.281 116.984 113.78 116.984 108.789Z" fill="#BD30D5"/>
<path d="M114.274 114.787C108.546 121.26 114.274 125.787 114.274 125.787C111.175 131.041 99.0837 131.702 93.5292 132.844C88.7246 133.831 85.6976 138.495 81.3381 140.011C77.194 141.452 72.6248 141.789 68.2621 141.789C63.5476 141.789 59.2858 140.789 54.5962 140.789C49.9793 140.789 54.2159 133.32 51.8434 131.788C50.4263 130.873 49.8138 128.64 48.7464 127.232C46.8905 124.785 44.0219 123.787 41.3236 123.787H29.3291C23.1348 123.787 10.7474 124.368 10.7474 114.787C10.7474 106.489 13.6846 90.6382 3.86529 89.7845C-1.6864 89.3018 0.249588 83.7863 0.964973 79.3392C1.91658 73.4237 5.7523 71.72 9.46928 68.2827C13.6046 64.4586 12.5171 59.4257 12.5171 53.7815V30.7796C12.5171 21.8455 41.9338 25.4595 47.0259 25.7792C52.5146 26.1239 60.3762 39.4907 61.5766 44.3363C63.5693 52.3797 61.3064 61.5337 62.1174 69.7829C62.7693 76.4148 65.103 82.7986 70.2284 77.0057C72.4174 74.5316 76.3103 70.8108 77.7987 67.7827C81.8467 59.5474 89.2451 44.2561 99.4282 51.7814C105.205 56.0502 110.735 57.94 110.735 66.3381C110.735 72.0067 108.08 75.6961 108.08 81.2838C108.08 86.5385 104.485 87.9252 102.771 92.2847C100.644 97.6926 105.694 101.785 110.292 101.785C113.647 101.785 120.929 107.264 114.274 114.787Z" fill="#FFF7AB"/>
<path d="M136.293 133.289C127.946 131.474 122.29 129.255 114.904 124.789L48.9039 140.789C45.6741 144.019 41.952 145.933 38.6816 149.567C35.9788 152.57 32.9692 154.655 30.4039 157.733C23.2108 166.365 12.9039 176.787 12.9039 188.844C12.9039 197.754 12.0725 207.087 12.9594 215.955C13.7242 223.603 13.8607 233.711 16.1261 241.011C17.332 244.897 17.4364 249.153 19.4594 252.567C20.5138 254.346 20.0161 256.657 21.1261 258.567C22.0518 260.159 23.5748 261.242 24.4039 262.9C26.6472 267.387 27.6497 272.393 30.4039 276.678C31.8661 278.952 34.1254 281.646 35.1261 284.011C38.0723 290.975 42.352 297.219 46.3483 303.567C49.099 307.935 53.191 314.817 54.8483 319.789C57.0943 326.527 63.5517 343.338 72.4594 339.289C91.8867 330.458 112.257 325.987 133.404 322.733C140.345 321.665 146.218 320.789 153.459 320.789H169.904C173.372 320.789 180.014 322.533 178.848 317.289C178.312 314.877 176.904 314.059 176.904 311.233C176.904 309.585 176.015 307.039 174.904 305.789C167.409 297.357 166.81 285.037 162.404 275.344C157.707 265.011 159.904 251.156 159.904 239.789C159.904 233.636 160.524 230.754 162.904 225.4C164.675 221.414 163.904 216.194 163.904 211.789V195.4C163.904 191.532 164.852 186.24 163.126 182.789C161.729 179.995 159.899 179.52 159.126 176.233C158.669 174.291 159.392 172.067 158.404 170.289C156.459 166.788 156.046 159.558 155.904 155.567C155.576 146.399 151.839 142.208 145.015 136.9C142.255 134.753 139.79 134.049 136.293 133.289Z" fill="#FF7171"/>
</svg>
