<svg width="181" height="357" viewBox="0 0 181 357" fill="none" xmlns="http://www.w3.org/2000/svg">
<path d="M169.207 25.2895C182.24 55.0606 166.981 101.825 162.34 135.238C164.301 143.772 149.593 177.144 148.346 186.124C145.773 204.649 140.322 222.082 137.718 240.829C136.463 249.863 135.634 259.249 133.917 268.187C132.543 275.341 125.196 272.718 121.751 272.177C116.916 271.417 112.265 269.289 107.612 268.558C101.679 267.626 97.4965 264.174 91.686 263.261C89.4747 262.914 87.2349 263.215 86.0966 260.286C85.3504 258.367 86.9237 255.484 85.9085 253.967C85.0373 252.665 83.539 242.805 85.9463 242.791L104.891 105.302C108.723 77.7168 104.928 69.6011 104.498 43.8134C105.535 36.3455 105.949 13.6641 110.976 8.49026C110.976 8.49026 166.202 18.4252 169.207 25.2895Z" fill="#FFF7AB" stroke="#FFF7AB" stroke-linecap="round" stroke-linejoin="round"/>
<path d="M137.313 259.428C133.18 254.564 128.084 251.433 123.878 246.345L92.0638 256.488C92.0638 256.488 74.3852 251.01 65.466 253.854L39.9485 261.99L39.7453 262.055C29.6337 265.278 4.70888 273.222 10.925 294.167C13.1925 301.808 18.5369 306.365 21.7829 313.166C25.3194 320.576 29.9551 323.085 36.1171 325.113C41.6736 326.942 47.9377 323.98 53.6413 325.083C61.8937 326.679 70.4021 323.135 78.6559 320.504L107.156 311.417C112.772 309.626 120.689 309.098 125.79 305.167C128.671 302.947 133.234 301.529 135.047 297.584C137.071 293.18 139.71 288.579 142.121 284.523C143.988 281.382 145.168 274.653 142.559 272.034C139.677 269.141 140.317 262.962 137.313 259.428Z" fill="#65C06E"/>
</svg>
