<svg width="171" height="263" viewBox="0 0 171 263" fill="none" xmlns="http://www.w3.org/2000/svg">
<path d="M12.4538 22.5783C-1.49235 44.6688 12.1931 78.2115 15.7347 102.381C13.5051 108.655 27.075 132.468 28.0269 138.964C29.9904 152.364 34.8558 164.876 36.8428 178.437C37.8003 184.971 38.3219 191.776 39.7425 198.225C40.8797 203.388 48.2831 201.241 51.7331 200.736C56.5742 200.026 61.2759 198.327 65.935 197.644C71.8746 196.774 76.153 194.125 81.9707 193.273C84.1847 192.948 86.406 193.095 87.6348 190.927C88.4403 189.505 86.9665 187.458 88.0268 186.321C88.9368 185.346 90.7486 178.12 88.3511 178.188L73.9313 78.732C71.0075 58.7784 75.0509 52.7485 76.3139 33.9653C75.5224 28.5636 75.8452 12.0685 71.0051 8.46558C71.0051 8.46558 15.6693 17.485 12.4538 22.5783Z" fill="#FFF7AB" stroke="#FFF7AB" stroke-linecap="round" stroke-linejoin="round"/>
<path d="M36.6435 191.96C40.9181 188.287 46.0962 185.842 50.4506 182.003L81.8137 188.356C81.8137 188.356 99.6016 183.796 108.394 185.577L133.55 190.672L133.75 190.713C143.719 192.731 168.29 197.706 161.42 213.153C158.914 218.787 153.442 222.277 149.989 227.332C146.226 232.84 141.527 234.816 135.323 236.492C129.728 238.003 123.584 236.05 117.867 237.037C109.595 238.466 101.234 236.162 93.0971 234.514L65.001 228.823C59.4643 227.702 51.5955 227.574 46.641 224.878C43.8433 223.355 39.3433 222.471 37.6652 219.659C35.7915 216.519 33.3123 213.255 31.0417 210.381C29.2832 208.156 28.3257 203.296 31.0095 201.306C33.9743 199.107 33.5369 194.63 36.6435 191.96Z" fill="#65C06E"/>
</svg>
