<svg width="187" height="290" viewBox="0 0 187 290" fill="none" xmlns="http://www.w3.org/2000/svg">
<path d="M82.4247 150.179C96.0751 148.828 110.111 154.063 121.783 160.567L124.528 158.269L115.899 186.536L110.06 205.665C108.451 210.935 107.455 219.773 104.175 224.199C95.4468 235.975 97.1604 264.045 81.6705 270.157C71.5357 274.156 63.2408 268.193 52.4987 270.344C45.2827 271.789 36.8463 267.424 29.9567 265.321C23.238 263.27 16.4713 258.81 14.8887 251.253C13.6602 245.387 13.3917 241.091 15.1908 235.197C19.1034 222.381 21.7969 208.02 27.3856 195.994C31.2419 187.696 36.4105 179.079 39.0927 170.292C41.0462 163.893 44.4545 152.76 51.6646 151.244C55.4239 150.454 59.8414 151.786 63.7661 151.221C70.0472 150.316 76.1529 150.799 82.4247 150.179Z" fill="#FFF7AB"/>
<path d="M172.869 76.9128C178.108 65.0842 186.322 32.8456 186.322 32.8456L89.3946 8.70615C84.5942 7.24072 84.7926 30.8245 81.3729 34.9836C79.1061 37.7404 76.633 39.5502 74.4535 42.2439C71.7489 45.5864 70.729 48.6446 69.4688 52.7726C63.616 71.9452 55.7423 91.2127 49.9038 110.339L42.7148 133.888C41.647 137.386 28.7441 150.985 34.2188 152.657L58.1081 159.949C69.2677 163.356 80.5122 165.61 92.0588 167.27C98.4805 168.194 104.669 170.868 111.126 171.509C116.345 172.027 121.481 172.722 126.5 174.254C129.999 175.323 134.595 177.829 138.31 177.799C139.417 177.79 143.341 169.655 143.748 168.321L147.895 154.737L163.207 104.576C165.978 95.5016 169.035 85.5719 172.869 76.9128Z" fill="#9B99FF"/>
</svg>
