<svg width="187" height="290" viewBox="0 0 187 290" fill="none" xmlns="http://www.w3.org/2000/svg">
<path d="M104.559 150.179C90.9086 148.829 76.8729 154.063 65.201 160.567L62.4552 158.269L71.0845 186.536L76.9239 205.665C78.5327 210.935 79.5287 219.773 82.8089 224.199C91.5369 235.975 89.8233 264.045 105.313 270.157C115.448 274.156 123.743 268.193 134.485 270.344C141.701 271.789 150.137 267.424 157.027 265.321C163.746 263.27 170.512 258.81 172.095 251.253C173.324 245.387 173.592 241.091 171.793 235.197C167.88 222.381 165.187 208.02 159.598 195.994C155.742 187.696 150.573 179.079 147.891 170.292C145.938 163.893 142.529 152.76 135.319 151.244C131.56 150.454 127.142 151.786 123.218 151.221C116.937 150.316 110.831 150.799 104.559 150.179Z" fill="#FFF7AB"/>
<path d="M14.1142 76.9128C8.87559 65.0842 0.661738 32.8456 0.661738 32.8456L97.589 8.70612C102.389 7.24069 102.191 30.8244 105.611 34.9836C107.878 37.7404 110.351 39.5501 112.53 42.2438C115.235 45.5864 116.255 48.6446 117.515 52.7726C123.368 71.9451 131.241 91.2127 137.08 110.339L144.269 133.888C145.337 137.386 158.24 150.985 152.765 152.656L128.876 159.949C117.716 163.356 106.471 165.61 94.9249 167.27C88.5032 168.194 82.3145 170.868 75.8574 171.509C70.6387 172.027 65.5031 172.722 60.484 174.254C56.9847 175.322 52.3886 177.829 48.6741 177.799C47.5666 177.789 43.6429 169.655 43.2358 168.321L39.089 154.737L23.7763 104.576C21.0061 95.5016 17.9491 85.5719 14.1142 76.9128Z" fill="#9B99FF"/>
</svg>
