<svg width="613" height="519" viewBox="0 0 613 519" fill="none" xmlns="http://www.w3.org/2000/svg">
<path d="M205.792 148.077C194.273 132.578 182.654 154.238 178.21 162.141L174.981 189.091C173.663 200.093 168.779 209.984 167.462 220.973C164.83 242.95 160.295 265.364 157.616 287.724L147.506 372.12C146.068 384.124 142.922 396.744 139.376 408.245C137.466 414.44 128.49 428.099 135.681 433.084C142.64 437.907 160.941 436.032 169.074 434.001C182.426 430.666 193.784 433.619 195.793 416.854L204.871 341.07C207.75 317.039 212.865 292.151 212.191 267.953C211.671 249.26 212.812 228.455 215.045 209.819C217.578 188.67 219.332 166.295 205.792 148.077Z" fill="#FFABAB"/>
<path d="M342.381 232.222C342.829 218.04 344.113 213.865 352.733 201.42C368.663 194.283 354.996 184.011 349.14 170.94C345.909 163.728 343.781 165.265 339.168 169.146C333.896 173.582 322.178 179.73 320.105 186.743C317.042 197.104 303.622 204.725 298.108 214.264C293.888 221.565 292.66 229.139 289.036 236.442C281.673 251.279 276.101 272.081 275.038 288.556C273.851 306.957 268.642 332.679 276.444 350.093L299.014 400.472C302.044 407.236 307.779 412.373 311.252 418.805C314.651 425.099 321.233 428.218 324.124 434.059C330.319 446.575 344.805 462.431 357.483 468.088C369.646 473.515 388.123 467.331 400.036 461.993C410.67 457.229 433.231 452.979 426.164 437.206C423.005 430.153 419.195 426.893 413.623 421.692C408.875 417.258 406.141 409.465 401.266 405.089C388.831 393.931 373.337 383.566 362.706 370.931C356.392 363.427 345.234 359.884 341.095 350.647L334.295 335.468C331.331 328.852 335.542 309.963 336.663 302.318C338.827 287.552 341.078 273.642 341.713 258.685C342.092 249.773 342.1 241.1 342.381 232.222Z" fill="#FF0000"/>
<path d="M180.579 117.552C180.512 117.163 180.448 116.772 180.385 116.38C178.614 105.351 178.057 93.07 172.596 83.0971C170.482 79.2361 170.289 74.2599 168.266 70.1841C166.476 66.5761 162.088 63.3825 159.303 60.4615C155.545 56.5214 151.072 56.4091 146.123 54.5289C142.583 53.1841 135.26 51.4037 131.635 52.3768C127.429 53.5059 122.818 53.2139 118.341 54.5362C111.401 56.5864 103.758 59.3014 97.5493 63.001C84.8758 70.5529 70.7083 76.4154 59.0114 85.7006C54.1326 89.5735 41.8856 96.7541 40.3172 103.45C38.7385 110.189 32.5447 115.965 33.2833 123.283C33.5967 126.389 32.3082 127.252 34.586 129.641C36.5406 131.691 37.9251 132.787 40.8715 133.012C42.7965 133.16 43.6692 131.828 45.501 131.669C48.213 131.432 50.0504 132.817 51.7959 134.648L56.9716 140.075C59.9525 143.202 63.0255 143.908 66.573 146.119C71.536 149.214 80.1373 154.795 86.3039 154.173C95.8132 153.213 105.854 152.406 115.462 152.469C122.324 152.514 129.551 150.527 135.952 148.437C141.864 146.508 148.537 145.927 154.533 143.692C162.535 140.71 170.698 135.047 177.985 130.772C180.676 129.193 184.023 121.164 180.579 117.552Z" fill="#D53030"/>
<path d="M182.756 123.763C183.079 132.401 190.348 131.724 190.348 131.724C191.731 137.665 183.436 146.488 180.204 151.147C177.408 155.177 178.436 160.641 176.327 164.747C174.323 168.65 171.248 172.047 168.091 175.057C164.679 178.311 160.904 180.528 157.511 183.764C154.169 186.95 152.081 178.622 149.307 179.15C147.65 179.466 145.665 178.272 143.922 177.99C140.89 177.5 138.125 178.757 136.172 180.619L127.492 188.897C123.009 193.171 114.445 202.14 107.832 195.206C102.106 189.201 93.2934 175.702 85.5978 181.861C81.2469 185.343 78.8417 180.015 76.2906 176.303C72.897 171.365 74.4973 167.485 74.8153 162.432C75.1691 156.811 70.9088 153.919 67.0138 149.834L51.1403 133.187C44.9749 126.722 68.7584 109.037 72.6642 105.754C76.8744 102.216 91.7883 106.464 96.001 109.143C102.994 113.589 107.673 121.775 113.953 127.186C119.001 131.536 125.096 134.545 124.807 126.816C124.684 123.514 124.934 118.135 123.922 114.917C121.168 106.163 115.97 89.9908 128.533 88.4097C135.659 87.5129 140.965 85.0644 146.761 91.1423C150.673 95.2447 151.298 99.7467 155.154 103.791C158.78 107.594 157.135 111.078 158.903 115.416C161.096 120.797 167.575 120.274 170.903 117.102C173.331 114.787 182.382 113.726 182.756 123.763Z" fill="#FFABAB"/>
<path d="M190.464 109.537C185.309 116.347 180.917 120.546 173.759 125.37L160.526 191.98C162.099 196.268 162.271 200.45 164.193 204.945C165.781 208.66 166.407 212.267 168.122 215.889C172.929 226.045 178.051 239.778 188.992 244.848C197.075 248.594 205.193 253.272 213.613 256.197C220.874 258.718 230.102 262.844 237.678 263.858C241.711 264.398 245.616 266.092 249.564 265.692C251.622 265.484 253.51 266.907 255.709 266.703C257.542 266.532 259.166 265.606 261.018 265.551C266.032 265.402 270.997 266.597 276.042 265.9C278.72 265.529 282.114 264.612 284.681 264.699C292.238 264.953 299.703 263.696 307.142 262.739C312.263 262.08 320.227 261.26 325.435 261.847C332.493 262.642 350.461 263.852 350.532 254.067C350.688 232.728 355.196 212.365 361.135 191.811C363.085 185.064 364.759 179.366 367.804 172.796L374.718 157.876C376.176 154.729 380.551 149.437 375.303 148.289C372.889 147.761 371.555 148.695 368.991 147.507C367.495 146.814 364.811 146.55 363.21 147.033C352.409 150.288 340.979 145.652 330.332 145.574C318.981 145.491 307.334 137.672 297.021 132.893C291.438 130.305 289.085 128.531 285.227 124.121C282.355 120.838 277.295 119.343 273.298 117.491L258.428 110.6C254.919 108.974 250.516 105.889 246.659 106.003C243.537 106.096 242.336 107.556 239.029 106.876C237.074 106.474 235.36 104.883 233.332 105.032C229.338 105.325 222.605 102.659 218.923 101.11C210.468 97.553 205.093 99.1815 197.408 103.142C194.299 104.743 192.625 106.683 190.464 109.537Z" fill="#FF7171"/>
<path d="M395.511 152.818C380.972 148.421 359.967 141.896 345.823 147.569C339.354 152.558 338.008 162.544 334.225 169.594C328.354 180.535 331.846 190.909 334.089 202.373C339.639 230.732 345.276 258.772 352.451 286.638C354.586 294.928 362.993 302.253 364.776 311.364C366.501 320.178 370.064 328.823 371.85 337.949C374.308 350.509 374.333 379.564 386.901 385.639C401.824 392.852 413.253 408.235 427.632 417.907C434.432 422.481 441.438 428.986 448.784 432.483C454.804 435.349 461.557 440.553 467.106 444.286C470.276 446.418 474.524 452.971 478.557 452.858C490.158 459.083 550.03 470.987 559.753 479.91C572.002 491.152 576.113 479.695 588.493 474.286C593.711 472.006 596.579 465.54 602.022 464.256C606.426 463.217 609.441 461.784 608.496 456.959C606.281 445.639 602.66 439.145 595.721 429.93C589.22 421.297 581.375 414.314 570.306 410.573C559.676 406.981 552.792 399.815 543.056 394.591C535.401 390.483 524.707 388.596 516.538 385.536C505.636 381.452 494.161 378.007 482.842 374.87C475.216 372.756 465.679 374.753 458.726 370.648C454.815 368.338 443.164 366.007 441.836 360.852C439.341 351.159 437.958 341.033 436.036 331.21C434.123 321.437 437.728 311.166 435.78 301.212C431.984 281.814 435.81 263.114 432.055 243.923L426.94 217.786L424.197 203.767C422.709 196.166 418.417 191.267 416.633 184.244C413.819 173.166 407.884 156.559 395.511 152.818Z" fill="#FF0000"/>
<path d="M231.792 196.077C220.273 180.578 208.654 202.238 204.21 210.141L200.981 237.091C199.663 248.093 194.779 257.984 193.462 268.973C190.83 290.95 186.295 313.364 183.616 335.724L173.506 420.12C172.068 432.124 168.922 444.744 165.376 456.245C163.466 462.44 154.49 476.099 161.681 481.084C168.64 485.907 186.941 484.032 195.074 482.001C208.426 478.666 219.784 481.619 221.793 464.854L230.871 389.07C233.75 365.039 238.865 340.151 238.191 315.953C237.671 297.26 238.812 276.455 241.045 257.819C243.578 236.67 245.332 214.295 231.792 196.077Z" fill="#FFABAB"/>
</svg>
