<svg width="730" height="596" viewBox="0 0 730 596" fill="none" xmlns="http://www.w3.org/2000/svg">
<path d="M365 596L-2.48849e-06 226.384C288.815 -76.0019 448.637 -74.9206 730 226.384L365 596Z" fill="#7FA906"/>
<rect x="2.12183" y="-0.000512034" width="317.288" height="305.589" transform="matrix(0.707107 -0.707107 0.707448 0.706765 143.236 313.81)" stroke="white" stroke-width="3"/>
<rect width="59.2157" height="57.0527" rx="5" transform="matrix(0.707107 -0.707107 0.707448 0.706765 547.223 300.611)" fill="white"/>
<rect width="59.2157" height="57.0527" rx="5" transform="matrix(0.707107 -0.707107 0.707449 0.706764 103.826 311.562)" fill="white"/>
<rect width="59.2157" height="57.0527" rx="5" transform="matrix(0.707107 -0.707107 0.707449 0.706764 328.415 86.9726)" fill="white"/>
<path d="M360.596 469.115L380.831 501.162L338.156 501.285L360.596 469.115Z" fill="white"/>
<rect width="41.4964" height="44.9802" transform="matrix(0.999996 -0.00287732 -0.0343159 0.999411 338.782 500.213)" fill="white"/>
</svg>
