<svg
  width="162"
  height="161"
  viewBox="0 0 162 161"
  fill="none"
  xmlns="http://www.w3.org/2000/svg"
>
<g id="Group 3">
<path
      id="Vector"
      d="M125.018 34.4648C105.185 16.0447 73.3784 18.088 53.5064 37.96L12.198 79.2683C22.2647 67.4007 11.7072 79.7591 12.198 79.2683L15.1719 91.5663L18.0542 106.331C17.9675 107.724 35.2402 103.79 36.633 103.703L36.1864 125.191C37.5427 125.107 36.216 124.493 37.7379 126.015L57.6742 124.744C57.5874 126.137 58.7418 127.292 60.1347 127.205L58.3549 146.632C59.7112 146.548 57.738 146.015 60.9851 149.262L84.6298 148.016C84.5873 148.698 71.6935 160.953 72.1844 160.462L124.975 107.671C145.659 86.9877 145.839 53.8031 125.018 34.4648Z"
      fill="#FFA05A"
    />
<path
      id="Vector_2"
      d="M68.1803 57.9185C87.0984 39.0004 116.677 36.0842 136.533 51.4714C133.977 45.0371 130.018 39.0775 124.619 34.0661C104.863 15.7274 73.0511 17.8976 53.1019 37.8468L0.988469 89.9603C0.495773 90.453 10.9518 79.3607 11.6331 79.3156L15.5069 93.878C15.8813 94.2524 16.7624 100.11 17.1576 101.212L17.6361 105.226L68.1803 57.9185Z"
      fill="#F08C46"
    />
<path
      id="Vector_3"
      d="M61.1861 76.6516C56.017 71.4825 56.2465 62.8722 61.6989 57.4198L65.2889 53.8299C70.7412 48.3775 79.3515 48.1479 84.5206 53.3171C89.6897 58.4862 89.4602 67.0965 84.0078 72.5488L80.4178 76.1388C74.9652 81.5908 66.355 81.8205 61.1861 76.6516Z"
      fill="white"
    />
<path
      id="Vector_4"
      d="M68.3086 80.1818C63.0605 74.9337 63.2289 66.2564 68.6848 60.8005L72.2772 57.2082C75.6126 53.8728 80.1504 52.524 84.374 53.1705C79.1008 48.2183 70.6521 48.4667 65.2977 53.821L61.7054 57.4134C56.2494 62.8693 56.081 71.5465 61.3292 76.7947C63.3688 78.8343 65.9282 80.0452 68.6131 80.456C68.5132 80.3621 68.4063 80.2795 68.3086 80.1818Z"
      fill="#E4EAF6"
    />
<path
      id="Vector_5"
      d="M70.8778 72.2012C68.8102 70.1336 68.6535 66.9379 70.5282 65.0632L72.2251 63.3663C74.0997 61.4918 77.2953 61.6481 79.3631 63.7159C81.4307 65.7835 81.5874 68.9792 79.7127 70.8539L78.0158 72.5508C76.141 74.4256 72.9454 74.2688 70.8778 72.2012Z"
      fill="#FF8282"
    />
<path
      id="Vector_6"
      d="M85.1464 100.612C79.9773 95.4427 80.2068 86.8324 85.6592 81.3801L89.2492 77.7901C94.7015 72.3378 103.312 72.1082 108.481 77.2773C113.65 82.4464 113.42 91.0567 107.968 96.5091L104.378 100.099C98.9256 105.551 90.3153 105.781 85.1464 100.612Z"
      fill="white"
    />
<path
      id="Vector_7"
      d="M91.5345 103.408C86.5487 98.4219 86.9299 89.9573 92.3858 84.5014L95.9781 80.9091C99.3135 77.5737 103.772 76.1452 107.874 76.6701C102.856 71.9735 94.6124 72.4269 89.258 77.7813L85.6657 81.3736C80.2097 86.8295 79.8286 95.2941 84.8143 100.28C86.7519 102.217 89.2171 103.334 91.8246 103.667C91.7296 103.578 91.6274 103.501 91.5345 103.408Z"
      fill="#E4EAF6"
    />
<path
      id="Vector_8"
      d="M94.8381 96.1614C92.7705 94.0938 92.6138 90.8982 94.4885 89.0235L96.1854 87.3266C98.0599 85.452 101.256 85.6084 103.323 87.6762C105.391 89.7438 105.548 92.9395 103.673 94.8141L101.976 96.5111C100.101 98.3859 96.9059 98.2292 94.8381 96.1614Z"
      fill="#FF8282"
    />
</g>
</svg>
