<svg width="95" height="127" viewBox="0 0 95 127" fill="none" xmlns="http://www.w3.org/2000/svg">
<path d="M45.9538 0.0336361C20.4099 1.03225 0.534491 24.9681 0.534491 53.0713V111.49C-0.668114 95.9802 0.534491 112.184 0.534491 111.49L10.7326 118.083L22.5171 126.486C23.3894 127.532 32.2964 112.536 33.1685 111.49L47.2192 127C48.0684 125.981 46.7729 126.486 48.8056 126.486L61.2699 111.49C62.1422 112.536 63.6839 112.536 64.556 111.49L76.3405 126.486C77.1897 125.467 75.5165 126.486 79.8531 126.486L94.8104 108.885C95.237 109.397 94.8104 127.18 94.8104 126.486V51.8288C94.8108 22.5773 72.771 -1.01469 45.9538 0.0336361Z" fill="#FFA05A"/>
<path d="M23.6611 56.8081C23.6611 30.0538 41.4654 7.07667 65 3.91647C58.9962 1.17453 52.3732 -0.240481 45.4214 0.0335372C19.9825 1.03603 0.188849 25.0648 0.188849 53.2773V126.977C0.188849 127.674 -0.236053 112.437 0.188836 111.923L12.5 119.481C13 119.481 17.5 123 18.5 123.5L21.5 126L23.6611 56.8081Z" fill="#F08C46"/>
<path d="M31.5 75C24.5964 75 19 68.7493 19 61.0385V55.9615C19 48.2507 24.5964 42 31.5 42C38.4036 42 44 48.2507 44 55.9615V61.0385C43.9996 68.7493 38.4034 75 31.5 75Z" fill="white"/>
<path d="M38.6136 72.4598C31.6045 72.4598 25.9225 66.205 25.9225 58.4892V53.4088C25.9225 48.6919 28.0521 44.5295 31.3042 42C24.476 42.227 19 48.3768 19 55.949V61.0293C19 68.7452 24.682 75 31.6911 75C34.4151 75 36.9328 74.0465 39 72.4384C38.8707 72.4427 38.7441 72.4598 38.6136 72.4598Z" fill="#E4EAF6"/>
<path d="M35 65C32.2386 65 30 62.8511 30 60.1999V57.8001C30 55.1491 32.2384 53 35 53C37.7614 53 40 55.1489 40 57.8001V60.1999C40 62.8513 37.7614 65 35 65Z" fill="#FF8282"/>
<path d="M63.5 75C56.5964 75 51 68.7493 51 61.0385V55.9615C51 48.2507 56.5964 42 63.5 42C70.4036 42 76 48.2507 76 55.9615V61.0385C75.9998 68.7493 70.4034 75 63.5 75Z" fill="white"/>
<path d="M69.6327 72.4598C62.974 72.4598 57.5762 66.205 57.5762 58.4892V53.4088C57.5762 48.6919 59.5993 44.5295 62.689 42C56.2022 42.227 51 48.3768 51 55.949V61.0293C51 68.7452 56.3979 75 63.0565 75C65.6443 75 68.0362 74.0465 70 72.4384C69.8771 72.4427 69.7569 72.4598 69.6327 72.4598Z" fill="#E4EAF6"/>
<path d="M67 65C64.2386 65 62 62.8511 62 60.1999V57.8001C62 55.1491 64.2384 53 67 53C69.7614 53 72 55.1489 72 57.8001V60.1999C72 62.8513 69.7616 65 67 65Z" fill="#FF8282"/>
</svg>
