<svg id="Capa_1" enable-background="new 0 0 496.93 496.93" height="512" viewBox="0 0 496.93 496.93" width="512" xmlns="http://www.w3.org/2000/svg"><g><g fill="#dce7fb"><path d="m15 107.766h46.886c8.284 0 15-6.716 15-15s-6.716-15-15-15h-46.886c-8.284 0-15 6.716-15 15s6.716 15 15 15z"/><path d="m61.886 146.011h-46.886c-8.284 0-15 6.716-15 15s6.716 15 15 15h46.886c8.284 0 15-6.716 15-15s-6.716-15-15-15z"/><path d="m61.886 214.254h-46.886c-8.284 0-15 6.716-15 15s6.716 15 15 15h46.886c8.284 0 15-6.716 15-15s-6.716-15-15-15z"/></g><circle cx="342.182" cy="74.142" fill="#ffb64c" r="60.253"/><path d="m355.839 154.103-39.944-25.812-128.393-62.425c-13.866-6.731-30.718-.893-37.449 12.973l-36.79 75.79c-6.731 13.866-.893 30.718 12.973 37.449 13.866 6.731 30.718.893 37.449-12.973l24.552-50.579 44.048 21.382-87.267 179.29-59.349-28.809c-16.271-7.898-36.045-1.048-43.943 15.222-7.898 16.271-1.048 36.045 15.222 43.943l88.932 43.17c16.27 7.898 36.045 1.048 43.943-15.223l29.949-61.696 53.902 17.362c2.549 1.237 6.549 9.246 7.786 6.697l86.43-178.052c3.966-8.171-3.881-13.743-12.051-17.709z" fill="#ffb64c"/><path d="m368.585 19.985-52.622 108.404c29.918 14.461 65.906 1.97 80.423-27.935s2.069-65.908-27.801-80.469z" fill="#ff9100"/><path d="m481.16 114.766c-13.866-6.731-30.718-.893-37.449 12.973l-24.552 50.579-103.262-50.026-95.925 197.61 103.815 50.579-28.81 59.349c-7.898 16.271-1.048 36.045 15.223 43.943s36.045 1.048 43.943-15.223l43.17-88.932c7.898-16.27 1.048-36.045-15.223-43.943l-74.295-36.064 42.778-88.125 69.321 33.492c13.866 6.731 30.718.893 37.449-12.973l36.79-75.789c6.731-13.867.893-30.719-12.973-37.45z" fill="#ff9100"/></g></svg>