<svg viewBox="0 -6 511.99388 511" xmlns="http://www.w3.org/2000/svg"><path d="m238.726562 483.988281-43.464843-115.894531-56.40625-81.042969c-7.589844-10.898437-4.902344-25.890625 6-33.476562 10.902343-7.589844 25.890625-4.902344 33.476562 6l58.128907 83.515625c1.144531 1.640625 2.078124 3.421875 2.78125 5.292968l44.519531 118.71875c4.664062 12.433594-1.636719 26.296876-14.074219 30.960938s-26.300781-1.640625-30.960938-14.074219zm0 0" fill="#a5c8cd"/><path d="m10.335938 495.300781c-10.910157-7.574219-13.613282-22.5625-6.039063-33.472656l73.191406-105.390625-1.59375-104.011719c-.203125-13.28125 10.398438-24.210937 23.679688-24.417969 13.253906-.195312 24.214843 10.398438 24.414062 23.679688l1.710938 111.746094c.078125 5.027344-1.421875 9.953125-4.292969 14.085937l-77.601562 111.746094c-7.574219 10.90625-22.558594 13.613281-33.46875 6.035156zm0 0" fill="#c8e6eb"/><path d="m511.992188 206.601562c0 13.125-10.636719 23.761719-23.757813 23.761719s-23.757813-10.636719-23.757813-23.761719c0-13.121093 10.636719-23.757812 23.757813-23.757812s23.757813 10.636719 23.757813 23.757812zm0 0" fill="#e69632"/><path d="m207.574219 162.933594c-2.28125 0-4.546875-.410156-6.6875-1.210938l-87.742188-32.855468c-9.863281-3.695313-14.863281-14.683594-11.171875-24.546876 3.695313-9.867187 14.6875-14.867187 24.546875-11.175781l84.210938 31.535157 74.941406-2.394532c10.542969-.332031 19.335937 7.925782 19.671875 18.453125.335938 10.527344-7.925781 19.332031-18.453125 19.667969l-78.707031 2.515625c-.203125.007813-.40625.011719-.609375.011719zm0 0" fill="#ffac91"/><path d="m188.296875 116.277344-61.777344-23.128906c-9.859375-3.695313-20.851562 1.308593-24.546875 11.171874-3.691406 9.863282 1.308594 20.851563 11.171875 24.546876l62.011719 23.21875zm0 0" fill="#e83e29"/><path d="m153.253906 286.9375c15.265625.128906 27.597656-12.425781 27.203125-27.6875l-4.128906-158.539062c-.160156-6.082032-2.917969-11.84375-7.667969-16.007813-4.75-4.167969-11.097656-6.390625-17.640625-6.183594l-24.515625.457031c-30.253906.566407-54.28125 25.617188-53.582031 55.867188l3.488281 151.453125zm0 0" fill="#fa503c"/><path d="m460.03125 266.0625c4.253906 2.269531 5.714844 7.660156 3.195312 11.761719l-12.863281 20.957031c-2.519531 4.109375-7.988281 5.242188-11.933593 2.476562l-188.8125-130.410156c-2.609376 3.726563-7.695313 4.828125-11.621094 2.417969-4.082032-2.507813-5.359375-7.84375-2.855469-11.921875l8.0625-13.132812c2.503906-4.082032 7.84375-5.359376 11.921875-2.855469 3.929688 2.414062 5.25 7.449219 3.105469 11.460937zm0 0" fill="#5a2d19"/><path d="m205.410156 45.148438c0 24.664062-19.992187 44.652343-44.652344 44.652343-24.660156 0-44.652343-19.988281-44.652343-44.652343 0-24.660157 19.992187-44.652344 44.652343-44.652344 24.660157 0 44.652344 19.992187 44.652344 44.652344zm0 0" fill="#ffb69e"/><path d="m266.0625 207.6875-86.550781-23.019531c-2.761719-.734375-5.320313-2.078125-7.492188-3.9375l-64.582031-55.230469c-8.003906-6.847656-8.941406-18.886719-2.09375-26.890625 6.84375-8.003906 18.882812-8.941406 26.886719-2.097656l61.28125 52.414062 82.355469 21.902344c10.179687 2.707031 16.234374 13.152344 13.527343 23.328125-2.707031 10.179688-13.152343 16.238281-23.332031 13.53125zm0 0" fill="#ffb69e"/><path d="m168.378906 127.429688-36.148437-30.917969c-8.003907-6.84375-20.042969-5.90625-26.890625 2.097656-6.84375 8.007813-5.90625 20.042969 2.097656 26.890625l34.234375 29.277344zm0 0" fill="#e83e29"/></svg>