<svg viewBox="-56 0 511 511.99997" xmlns="http://www.w3.org/2000/svg"><path d="m302.757812 303.101562-104.449218 35.777344-55.515625-162.070312c-4.625-13.503906 2.574219-28.203125 16.078125-32.828125l55.542968-19.023438c13.503907-4.625 28.203126 2.570313 32.828126 16.078125zm0 0" fill="#fa503c"/><path d="m357.175781 505.769531-110.71875-96.558593c-6.710937-5.851563-9.847656-14.800782-8.261719-23.558594l14.8125-81.710938c2.492188-13.738281 15.648438-22.855468 29.382813-20.363281 13.734375 2.488281 22.851563 15.644531 20.363281 29.378906l-12.253906 67.589844 99.902344 87.121094c10.519531 9.175781 11.609375 25.140625 2.4375 35.664062-9.175782 10.519531-25.144532 11.609375-35.664063 2.4375zm0 0" fill="#a5c8cd"/><path d="m106.734375 510.996094c-13.40625-3.882813-21.128906-17.902344-17.246094-31.308594l39.460938-136.277344c2.304687-7.957031 8.363281-14.28125 16.210937-16.925781l124.652344-41.988281c13.230469-4.460938 27.566406 2.652344 32.023438 15.882812 4.457031 13.230469-2.65625 27.566406-15.886719 32.023438l-112.117188 37.769531-35.785156 123.574219c-3.894531 13.449218-17.941406 21.121094-31.3125 17.25zm0 0" fill="#c8e6eb"/><path d="m197.832031 20.714844-24.175781-18.570313c-4.738281-3.640625-11.570312-2.527343-14.914062 2.421875l-141.488282 209.453125c-4.671875-3.15625-11.046875-2.183593-14.53125 2.347657-3.613281 4.707031-2.7304685 11.453124 1.976563 15.070312l15.152343 11.636719c4.703126 3.613281 11.449219 2.730469 15.066407-1.976563 3.480469-4.53125 2.78125-10.945312-1.476563-14.644531l165.898438-190.703125c3.921875-4.507812 3.226562-11.394531-1.507813-15.035156zm0 0" fill="#5a2d19"/><path d="m202.59375 77.265625c0 25.917969-21.011719 46.929687-46.929688 46.929687-25.921874 0-46.933593-21.011718-46.933593-46.929687 0-25.921875 21.011719-46.933594 46.933593-46.933594 25.917969 0 46.929688 21.011719 46.929688 46.933594zm0 0" fill="#ffb69e"/><path d="m22.058594 223.375 91.316406 27.179688c7.65625 2.277343 15.9375.574218 22.074219-4.542969l77.421875-64.714844c10.113281-8.433594 11.476562-23.46875 3.042968-33.585937-8.429687-10.121094-23.472656-11.480469-33.589843-3.042969l-67.597657 56.523437-79.0625-23.53125c-12.625-3.753906-25.902343 3.429688-29.660156 16.054688-3.75 12.609375 3.421875 25.902344 16.054688 29.660156zm0 0" fill="#ffb69e"/><path d="m215.914062 147.710938c-8.429687-10.121094-23.472656-11.476563-33.589843-3.042969l-38.535157 32.222656 30.722657 36.472656 38.359375-32.0625c10.113281-8.4375 11.476562-23.472656 3.042968-33.589843zm0 0" fill="#e83e29"/></svg>