<?xml version="1.0" encoding="utf-8"?>
<!-- Generator: Adobe Illustrator 23.0.3, SVG Export Plug-In . SVG Version: 6.00 Build 0)  -->
<svg version="1.1" id="Icons" xmlns="http://www.w3.org/2000/svg" xmlns:xlink="http://www.w3.org/1999/xlink" x="0px" y="0px"
	 viewBox="0 0 32 32" style="enable-background:new 0 0 32 32;" xml:space="preserve">
<style type="text/css">
	.st0{fill:none;stroke:#000000;stroke-width:2;stroke-linecap:round;stroke-linejoin:round;stroke-miterlimit:10;}
</style>
<path d="M19.4,16l7.4-7.4c0.4-0.4,0.4-0.9,0.1-1.3C24.2,3.9,20.3,2,16,2C8.3,2,2,8.3,2,16s6.3,14,14,14c4.3,0,8.2-1.9,10.9-5.2
	c0.3-0.4,0.3-1-0.1-1.3L19.4,16z M14,14c-1.7,0-3-1.3-3-3s1.3-3,3-3s3,1.3,3,3S15.7,14,14,14z"/>
</svg>
