<?xml version="1.0" encoding="utf-8"?>
<!-- Generator: Adobe Illustrator 18.0.0, SVG Export Plug-In . SVG Version: 6.00 Build 0)  -->
<!DOCTYPE svg PUBLIC "-//W3C//DTD SVG 1.1//EN" "http://www.w3.org/Graphics/SVG/1.1/DTD/svg11.dtd">
<svg version="1.1" id="Layer_1" xmlns="http://www.w3.org/2000/svg" xmlns:xlink="http://www.w3.org/1999/xlink" x="0px" y="0px"
	 viewBox="0 0 1700 1000" enable-background="new 0 0 1700 1000" xml:space="preserve">
<g>
	<defs>
		<rect id="SVGID_7_" width="1700" height="1000"/>
	</defs>
	<clipPath id="SVGID_2_">
		<use xlink:href="#SVGID_7_"  overflow="visible"/>
	</clipPath>
	<polygon clip-path="url(#SVGID_2_)" fill="#DC9A0C" points="0,1000 607.5,1000 0,704.5 	"/>
	<polygon clip-path="url(#SVGID_2_)" fill="#DC9A0C" points="1700,1000 1700,704.5 1095.6,1000 	"/>
	<path clip-path="url(#SVGID_2_)" fill="#2B3E51" d="M-574,320.6l208.8,101.1l1217,589l1217-589l208.8-101.1v0
		c-17.6-8.6-34.8-16.9-51.7-25.1c-172.2-83.8-309.6-150.6-449.8-218.8c-25.1-12.2-50.5-23.9-76.1-35.1V0h-101.8
		c-238.1-89.9-490.9-136.2-746.4-136.2h0h0C596.3-136.2,343.4-89.9,105.3,0H0v43.1C-24.4,53.8-48.5,65-72.5,76.6
		C-213.7,145.3-352,212.6-525.9,297.2C-541.6,304.8-557.6,312.6-574,320.6L-574,320.6z"/>
	<path clip-path="url(#SVGID_2_)" fill="#DC9A0C" d="M1774.3,164.5c-288-140.1-604-212.9-924.3-212.9h0h0
		c-320.2,0-636.3,72.8-924.3,212.9c-154,74.9-304.5,148.1-501.5,243.9v0L-367,509.5l1217,589l1217-589l208.8-101.1v0
		C2078.8,312.6,1928.3,239.4,1774.3,164.5z"/>
	<g clip-path="url(#SVGID_2_)">
		<polygon fill="#418900" points="361,335.1 262.8,287.6 164.7,335.1 262.8,382.6 		"/>
		<polygon fill="#549A00" points="459.1,287.6 361,240 262.8,287.6 361,335.1 		"/>
		<polygon fill="#549A00" points="949.9,240 1048.1,192.5 949.9,145 851.8,192.5 		"/>
		<polygon fill="#549A00" points="557.3,335.1 655.5,287.6 557.3,240 459.1,287.6 		"/>
		<polygon fill="#418900" points="262.8,382.6 164.7,430.1 262.8,477.6 361,430.1 		"/>
		<polygon fill="#549A00" points="164.7,335.1 66.5,382.6 164.7,430.1 262.8,382.6 		"/>
		<polygon fill="#418900" points="557.3,240 459.1,192.5 361,240 459.1,287.6 		"/>
		<polygon fill="#549A00" points="851.8,192.5 753.6,145 655.5,192.5 753.6,240 		"/>
		<polygon fill="#418900" points="753.6,240 655.5,192.5 557.3,240 655.5,287.6 		"/>
		<polygon fill="#418900" points="1048.1,287.6 1146.2,240 1048.1,192.5 949.9,240 		"/>
		<polygon fill="#418900" points="949.9,145 851.8,97.5 753.6,145 851.8,192.5 		"/>
		<polygon fill="#549A00" points="361,430.1 262.8,477.6 361,525.1 459.1,477.6 		"/>
		<polygon fill="#418900" points="1146.2,525.1 1244.4,572.6 1342.6,525.1 1244.4,477.6 		"/>
		<polygon fill="#549A00" points="1440.7,382.6 1538.9,430.1 1637,382.6 1538.9,335.1 		"/>
		<polygon fill="#549A00" points="1538.9,335.1 1637,287.6 1538.9,240 1440.7,287.6 		"/>
		<polygon fill="#549A00" points="1244.4,477.6 1342.6,525.1 1440.7,477.6 1342.6,430.1 		"/>
		<polygon fill="#418900" points="1342.6,430.1 1440.7,477.6 1538.9,430.1 1440.7,382.6 		"/>
		<polygon fill="#418900" points="459.1,477.6 361,525.1 459.1,572.6 557.3,525.1 		"/>
		<polygon fill="#549A00" points="1146.2,240 1244.4,192.5 1146.2,145 1048.1,192.5 		"/>
		<polygon fill="#418900" points="1440.7,287.6 1538.9,240 1440.7,192.5 1342.6,240 		"/>
		<polygon fill="#418900" points="1342.6,145 1244.4,97.5 1146.2,145 1244.4,192.5 		"/>
		<polygon fill="#549A00" points="1342.6,240 1440.7,192.5 1342.6,145 1244.4,192.5 		"/>
		<polygon fill="#418900" points="1637,382.6 1735.2,335.1 1637,287.6 1538.9,335.1 		"/>
		<polygon fill="#418900" points="753.6,715.2 851.8,762.7 949.9,715.2 851.8,667.6 		"/>
		<polygon fill="#549A00" points="1146.2,335.1 1244.4,287.6 1146.2,240 1048.1,287.6 		"/>
		<polygon fill="#418900" points="655.5,572.6 557.3,620.1 655.5,667.6 753.6,620.1 		"/>
		<polygon fill="#549A00" points="557.3,525.1 459.1,572.6 557.3,620.1 655.5,572.6 		"/>
		<polygon fill="#549A00" points="753.6,620.1 655.5,667.6 753.6,715.2 851.8,667.6 		"/>
		<polygon fill="#549A00" points="1048.1,572.6 1146.2,620.1 1244.4,572.6 1146.2,525.1 		"/>
		<polygon fill="#549A00" points="851.8,667.6 949.9,715.2 1048.1,667.6 949.9,620.1 		"/>
		<polygon fill="#418900" points="949.9,620.1 1048.1,667.6 1146.2,620.1 1048.1,572.6 		"/>
		<polygon fill="#418900" points="753.6,620.1 851.8,667.6 949.9,620.1 851.8,572.6 		"/>
		<polygon fill="#549A00" points="851.8,477.6 949.9,525.1 1048.1,477.6 949.9,430.1 		"/>
		<polygon fill="#418900" points="949.9,430.1 1048.1,477.6 1146.2,430.1 1048.1,382.6 		"/>
		<polygon fill="#418900" points="753.6,525.1 851.8,572.6 949.9,525.1 851.8,477.6 		"/>
		<polygon fill="#418900" points="1342.6,240 1244.4,192.5 1146.2,240 1244.4,287.6 		"/>
		<polygon fill="#418900" points="949.9,240 851.8,192.5 753.6,240 851.8,287.6 		"/>
		<polygon fill="#549A00" points="753.6,430.1 655.5,477.6 753.6,525.1 851.8,477.6 		"/>
		<polygon fill="#549A00" points="949.9,335.1 1048.1,287.6 949.9,240 851.8,287.6 		"/>
		<polygon fill="#549A00" points="851.8,287.6 753.6,240 655.5,287.6 753.6,335.1 		"/>
		<polygon fill="#418900" points="1048.1,382.6 1146.2,335.1 1048.1,287.6 949.9,335.1 		"/>
		<path fill="#418900" d="M1109.8,67.6c-48-5.3-97-9.1-147-11.4l85.3,41.3L1109.8,67.6z"/>
		<polygon fill="#418900" points="1342.6,335.1 1244.4,287.6 1146.2,335.1 1244.4,382.6 		"/>
		<polygon fill="#418900" points="655.5,382.6 557.3,430.1 655.5,477.6 753.6,430.1 		"/>
		<path fill="#418900" d="M593.7,67.6l61.8,29.9l85.3-41.3C690.7,58.5,641.7,62.4,593.7,67.6z"/>
		<path fill="#418900" d="M851.8,53.7c-29.4,0-58.5,0.5-87.3,1.6l87.3,42.3l87.3-42.3C910.2,54.2,881.1,53.7,851.8,53.7z"/>
		<polygon fill="#418900" points="753.6,430.1 851.8,477.6 949.9,430.1 851.8,382.6 		"/>
		<polygon fill="#418900" points="949.9,335.1 851.8,287.6 753.6,335.1 851.8,382.6 		"/>
		<polygon fill="#549A00" points="949.9,430.1 1048.1,382.6 949.9,335.1 851.8,382.6 		"/>
		<polygon fill="#549A00" points="1146.2,430.1 1244.4,382.6 1146.2,335.1 1048.1,382.6 		"/>
		<polygon fill="#418900" points="949.9,525.1 1048.1,572.6 1146.2,525.1 1048.1,477.6 		"/>
		<polygon fill="#549A00" points="1048.1,477.6 1146.2,525.1 1244.4,477.6 1146.2,430.1 		"/>
		<polygon fill="#418900" points="1048.1,192.5 1146.2,145 1048.1,97.5 949.9,145 		"/>
		<polygon fill="#418900" points="1146.2,430.1 1244.4,477.6 1342.6,430.1 1244.4,382.6 		"/>
		<polygon fill="#549A00" points="851.8,572.6 949.9,620.1 1048.1,572.6 949.9,525.1 		"/>
		<polygon fill="#549A00" points="1244.4,382.6 1342.6,430.1 1440.7,382.6 1342.6,335.1 		"/>
		<polygon fill="#549A00" points="1342.6,335.1 1440.7,287.6 1342.6,240 1244.4,287.6 		"/>
		<polygon fill="#418900" points="1440.7,382.6 1538.9,335.1 1440.7,287.6 1342.6,335.1 		"/>
		<polygon fill="#418900" points="753.6,335.1 655.5,287.6 557.3,335.1 655.5,382.6 		"/>
		<polygon fill="#418900" points="557.3,335.1 459.1,287.6 361,335.1 459.1,382.6 		"/>
		<polygon fill="#549A00" points="557.3,430.1 655.5,382.6 557.3,335.1 459.1,382.6 		"/>
		<polygon fill="#549A00" points="361,335.1 262.8,382.6 361,430.1 459.1,382.6 		"/>
		<polygon fill="#418900" points="655.5,477.6 557.3,525.1 655.5,572.6 753.6,525.1 		"/>
		<polygon fill="#418900" points="459.1,382.6 361,430.1 459.1,477.6 557.3,430.1 		"/>
		<polygon fill="#549A00" points="753.6,525.1 655.5,572.6 753.6,620.1 851.8,572.6 		"/>
		<polygon fill="#549A00" points="557.3,430.1 459.1,477.6 557.3,525.1 655.5,477.6 		"/>
		<polygon fill="#549A00" points="851.8,382.6 753.6,335.1 655.5,382.6 753.6,430.1 		"/>
		<path fill="#549A00" d="M66.5,287.6l-88.2-42.7c-30.8,16.9-59.6,34.7-86.1,53.3l76.1,36.9L66.5,287.6z"/>
		<path fill="#418900" d="M164.7,240l-88.5-42.8C41.6,212.1,9,228.1-21.7,244.9l88.2,42.7L164.7,240z"/>
		<path fill="#549A00" d="M262.8,192.5l-77.2-37.3c-38.2,13-74.8,27-109.5,42l88.5,42.8L262.8,192.5z"/>
		<polygon fill="#418900" points="66.5,477.6 -31.7,525.1 66.5,572.6 164.7,525.1 		"/>
		<polygon fill="#549A00" points="-31.7,430.1 -129.8,477.6 -31.7,525.1 66.5,477.6 		"/>
		<path fill="#549A00" d="M459.1,97.5l-16.5-8c-46.6,8.5-91.7,18.4-135.3,29.6L361,145L459.1,97.5z"/>
		<path fill="#549A00" d="M1260.9,89.5c-16.7-3-33.6-5.9-50.6-8.6l34.2,16.5L1260.9,89.5z"/>
		<path fill="#418900" d="M361,145l-53.6-25.9c-42.2,10.8-82.8,22.9-121.8,36.1l77.2,37.3L361,145z"/>
		<path fill="#549A00" d="M1342.6,145l53.6-25.9c-43.5-11.2-88.7-21.1-135.3-29.6l-16.5,8L1342.6,145z"/>
		<path fill="#549A00" d="M1048.1,97.5l98.2,47.5l98.2-47.5L1210.2,81c-32.8-5.2-66.3-9.6-100.4-13.4L1048.1,97.5z"/>
		<path fill="#549A00" d="M557.3,145l98.2-47.5l-61.8-29.9c-34.1,3.7-67.5,8.2-100.4,13.4l-34.2,16.5L557.3,145z"/>
		<polygon fill="#549A00" points="164.7,525.1 66.5,572.6 164.7,620.1 262.8,572.6 		"/>
		<path fill="#549A00" d="M493.3,81c-17.1,2.7-33.9,5.5-50.6,8.6l16.5,8L493.3,81z"/>
		<polygon fill="#418900" points="655.5,762.7 557.3,810.2 655.5,857.7 753.6,810.2 		"/>
		<path fill="#549A00" d="M851.8,97.5l98.2,47.5l98.2-47.5l-85.3-41.3c-7.9-0.4-15.8-0.7-23.7-1L851.8,97.5z"/>
		<polygon fill="#418900" points="1342.6,620.1 1440.7,667.6 1538.9,620.1 1440.7,572.6 		"/>
		<polygon fill="#418900" points="1146.2,715.2 1244.4,762.7 1342.6,715.2 1244.4,667.6 		"/>
		<polygon fill="#549A00" points="1048.1,762.7 1146.2,810.2 1244.4,762.7 1146.2,715.2 		"/>
		<polygon fill="#549A00" points="1244.4,667.6 1342.6,715.2 1440.7,667.6 1342.6,620.1 		"/>
		<polygon fill="#549A00" points="1735.2,430.1 1637,477.6 1735.2,525.1 1833.4,477.6 		"/>
		<polygon fill="#549A00" points="1440.7,572.6 1538.9,620.1 1637,572.6 1538.9,525.1 		"/>
		<polygon fill="#418900" points="1538.9,525.1 1637,572.6 1735.2,525.1 1637,477.6 		"/>
		<polygon fill="#549A00" points="753.6,810.2 655.5,857.7 753.6,905.2 851.8,857.7 		"/>
		<polygon fill="#418900" points="459.1,667.6 361,715.2 459.1,762.7 557.3,715.2 		"/>
		<polygon fill="#549A00" points="557.3,715.2 459.1,762.7 557.3,810.2 655.5,762.7 		"/>
		<polygon fill="#549A00" points="361,620.1 262.8,667.6 361,715.2 459.1,667.6 		"/>
		<polygon fill="#418900" points="262.8,572.6 164.7,620.1 262.8,667.6 361,620.1 		"/>
		<path fill="#418900" d="M1440.7,192.5l77.2-37.3c-38.9-13.2-79.6-25.2-121.8-36.1l-53.6,25.9L1440.7,192.5z"/>
		<polygon fill="#418900" points="753.6,905.2 851.8,952.7 949.9,905.2 851.8,857.7 		"/>
		<polygon fill="#549A00" points="851.8,857.7 949.9,905.2 1048.1,857.7 949.9,810.2 		"/>
		<polygon fill="#418900" points="949.9,810.2 1048.1,857.7 1146.2,810.2 1048.1,762.7 		"/>
		<polygon fill="#418900" points="164.7,335.1 66.5,287.6 -31.7,335.1 66.5,382.6 		"/>
		<polygon fill="#418900" points="262.8,477.6 164.7,525.1 262.8,572.6 361,525.1 		"/>
		<polygon fill="#549A00" points="164.7,430.1 66.5,477.6 164.7,525.1 262.8,477.6 		"/>
		<polygon fill="#549A00" points="-31.7,335.1 -129.8,382.6 -31.7,430.1 66.5,382.6 		"/>
		<polygon fill="#418900" points="66.5,382.6 -31.7,430.1 66.5,477.6 164.7,430.1 		"/>
		<polygon fill="#549A00" points="557.3,620.1 459.1,667.6 557.3,715.2 655.5,667.6 		"/>
		<polygon fill="#549A00" points="361,525.1 262.8,572.6 361,620.1 459.1,572.6 		"/>
		<path fill="#549A00" d="M1538.9,240l88.5-42.8c-34.7-15-71.3-29.1-109.5-42l-77.2,37.3L1538.9,240z"/>
		<polygon fill="#549A00" points="557.3,240 655.5,192.5 557.3,145 459.1,192.5 		"/>
		<polygon fill="#418900" points="655.5,667.6 557.3,715.2 655.5,762.7 753.6,715.2 		"/>
		<polygon fill="#418900" points="753.6,145 655.5,97.5 557.3,145 655.5,192.5 		"/>
		<path fill="#549A00" d="M851.8,97.5l-87.3-42.3c-7.9,0.3-15.8,0.6-23.7,1l-85.3,41.3l98.2,47.5L851.8,97.5z"/>
		<polygon fill="#418900" points="361,240 262.8,192.5 164.7,240 262.8,287.6 		"/>
		<polygon fill="#549A00" points="262.8,287.6 164.7,240 66.5,287.6 164.7,335.1 		"/>
		<polygon fill="#549A00" points="459.1,192.5 361,145 262.8,192.5 361,240 		"/>
		<polygon fill="#418900" points="557.3,145 459.1,97.5 361,145 459.1,192.5 		"/>
		<polygon fill="#418900" points="459.1,572.6 361,620.1 459.1,667.6 557.3,620.1 		"/>
		<polygon fill="#549A00" points="753.6,715.2 655.5,762.7 753.6,810.2 851.8,762.7 		"/>
		<polygon fill="#549A00" points="1440.7,477.6 1538.9,525.1 1637,477.6 1538.9,430.1 		"/>
		<polygon fill="#418900" points="1538.9,430.1 1637,477.6 1735.2,430.1 1637,382.6 		"/>
		<path fill="#418900" d="M1637,287.6l88.2-42.7c-30.6-16.8-63.3-32.7-97.8-47.7l-88.5,42.8L1637,287.6z"/>
		<path fill="#549A00" d="M1735.2,335.1l76.1-36.9c-26.5-18.6-55.3-36.4-86.1-53.3l-88.2,42.7L1735.2,335.1z"/>
		<polygon fill="#549A00" points="1735.2,335.1 1637,382.6 1735.2,430.1 1833.4,382.6 		"/>
		<polygon fill="#418900" points="949.9,715.2 1048.1,762.7 1146.2,715.2 1048.1,667.6 		"/>
		<polygon fill="#549A00" points="851.8,762.7 949.9,810.2 1048.1,762.7 949.9,715.2 		"/>
		<polygon fill="#418900" points="753.6,810.2 851.8,857.7 949.9,810.2 851.8,762.7 		"/>
		<polygon fill="#549A00" points="1048.1,667.6 1146.2,715.2 1244.4,667.6 1146.2,620.1 		"/>
		<polygon fill="#549A00" points="1244.4,572.6 1342.6,620.1 1440.7,572.6 1342.6,525.1 		"/>
		<polygon fill="#418900" points="1146.2,620.1 1244.4,667.6 1342.6,620.1 1244.4,572.6 		"/>
		<polygon fill="#418900" points="1342.6,525.1 1440.7,572.6 1538.9,525.1 1440.7,477.6 		"/>
	</g>
	<g clip-path="url(#SVGID_2_)">
		<path fill="#FFFFFF" d="M850,954c-0.7,0-1.3-0.1-1.9-0.4L-245.8,424.1c-0.7-0.4-1-0.9-0.6-1.4c17.2-22.4,37.6-44.6,60.6-65.9
			c22.1-20.4,47-40.4,74.1-59.4c26.5-18.6,55.5-36.5,86.3-53.5c30.6-16.8,63.6-32.9,98-47.8c34.7-15,71.6-29.2,109.8-42.1
			c39-13.2,80.1-25.4,122-36.2c43.7-11.2,89.3-21.2,135.6-29.6c16.8-3.1,33.8-5.9,50.7-8.6c32.9-5.2,66.7-9.7,100.6-13.4
			c48.3-5.3,97.9-9.1,147.4-11.4c7.9-0.4,15.9-0.7,23.8-1c29-1,58.5-1.6,87.5-1.6s58.5,0.5,87.5,1.6c7.9,0.3,15.9,0.6,23.8,1
			c49.5,2.3,99.1,6.1,147.4,11.4c33.9,3.7,67.7,8.2,100.6,13.4c16.9,2.6,34,5.5,50.7,8.6c46.2,8.4,91.9,18.4,135.6,29.6
			c42,10.8,83,23,122,36.2c38.1,12.9,75.1,27.1,109.8,42.1c34.4,14.9,67.4,31,98,47.8c30.8,16.9,59.9,34.9,86.3,53.4
			c27.1,19,52,39,74.1,59.4c23,21.3,43.4,43.5,60.6,65.9c0.4,0.5,0.1,1-0.6,1.4L851.9,953.6C851.3,953.9,850.7,954,850,954z
			 M-240.9,422.9L850,950.9l1090.9-528c-17-22.1-37.1-43.9-59.7-64.8c-22-20.3-46.8-40.2-73.7-59.1c-26.4-18.5-55.3-36.4-85.9-53.2
			c-30.5-16.7-63.3-32.7-97.6-47.6c-34.5-15-71.3-29.1-109.3-41.9c-38.8-13.2-79.7-25.3-121.5-36c-43.5-11.2-88.9-21.1-135-29.5
			c-16.7-3-33.7-5.9-50.5-8.6c-32.7-5.1-66.4-9.6-100.2-13.3c-48.1-5.3-97.4-9.1-146.7-11.4c-7.9-0.4-15.8-0.7-23.7-1
			c-28.9-1-58.2-1.6-87.1-1.6c-28.9,0-58.2,0.5-87.1,1.6c-7.9,0.3-15.8,0.6-23.7,1c-49.3,2.3-98.6,6.1-146.7,11.4
			c-33.7,3.7-67.4,8.2-100.2,13.3c-16.8,2.6-33.8,5.5-50.5,8.6c-46,8.4-91.4,18.3-135,29.5c-41.8,10.7-82.6,22.8-121.5,36
			c-38,12.9-74.7,27-109.3,41.9C41.9,213,9,229-21.5,245.7c-30.7,16.8-59.6,34.7-85.9,53.2c-27,18.9-51.8,38.8-73.7,59.1
			C-203.8,379-223.9,400.8-240.9,422.9z"/>
	</g>
	<path clip-path="url(#SVGID_2_)" fill="#F0AB1D" d="M849.4,401.2c-247.4,0-461.1,70.1-561.8,171.6v36.7v31.8l170.3,82.8L491,708
		l358.3,173.4l360.7-174.6l38.2,18.6l167.6-81.5v-36.7v-29.5C1317.3,473.5,1100.7,401.2,849.4,401.2z"/>
	<g clip-path="url(#SVGID_2_)">
		<path fill="#418900" d="M797.4,510.9l-75.7,36.8v221.5l86.7,42.2V515.4C804.6,514.1,800.9,512.6,797.4,510.9z"/>
		<polygon fill="#549A00" points="635,589.9 635,727.1 721.7,769.3 721.7,547.8 		"/>
		<path fill="#418900" d="M548.4,632.1c30,14.6,30,38.3,0,52.9l86.7,42.2V589.9L548.4,632.1z"/>
		<polygon fill="#549A00" points="981.8,547.8 981.8,769.3 1068.5,727.1 1068.5,589.9 		"/>
		<path fill="#418900" d="M1068.5,727.1l86.7-42.2c-30-14.6-30-38.3,0-52.9l-86.7-42.2V727.1z"/>
		<path fill="#549A00" d="M808.4,515.4v296.1l43.3,21.1l43.3-21.1V515.4C869.1,524,834.5,524,808.4,515.4z"/>
		<path fill="#418900" d="M906.1,510.9c-3.4,1.7-7.1,3.1-11,4.4v296.1l86.7-42.2V547.8L906.1,510.9z"/>
	</g>
	<path clip-path="url(#SVGID_2_)" fill="#DC9A0C" d="M929.8,812.7c43.1,21,43.1,55,0,75.9c-43.1,21-113,21-156.1,0
		c-43.1-21-43.1-55,0-75.9C816.8,791.7,886.7,791.7,929.8,812.7z"/>
	<polygon clip-path="url(#SVGID_2_)" fill="#FFFFFF" points="873,482.4 851.8,492.7 830.6,482.4 851.8,472.1 	"/>
	<polygon clip-path="url(#SVGID_2_)" fill="#FFFFFF" points="516.5,657.1 495.3,667.4 474.2,657.1 495.3,646.8 	"/>
	<polygon clip-path="url(#SVGID_2_)" fill="#FFFFFF" points="1187,657.1 1208.2,667.4 1229.4,657.1 1208.2,646.8 	"/>
	<g clip-path="url(#SVGID_2_)">
		<path fill="#FFFFFF" d="M851.8,898.5c-25.2,0-50.4-4.7-69.6-14c-26.2-12.7-35.4-31.3-24.1-48.5l3,0.5c-11,16.6-2.1,34.6,23.3,47
			c37.1,18.1,97.5,18.1,134.6,0c25.4-12.3,34.3-30.3,23.3-47l3-0.5c11.4,17.2,2.1,35.8-24.1,48.5C902.2,893.8,877,898.5,851.8,898.5
			z"/>
	</g>
	<path clip-path="url(#SVGID_2_)" fill="#FFFFFF" d="M922.5,824.2l961.4-467.6l-2.3-1.1L920.2,823.1h-44.9v0.8v47.4v14.4h-47.2
		v-14.4v-47.4v-0.8h-44.9l-962.9-468.4l-2.3,1.1L781,824.2v47.1H825v16h53.6v-16h43.9V824.2z M784.2,869.7v-45.1H825v45.1H784.2z
		 M919.3,869.7h-40.7v-45.1h40.7V869.7z"/>
	<path clip-path="url(#SVGID_2_)" fill="#DC9A0C" d="M904.8,631.7c29.3,14.2,29.3,37.3,0,51.6c-29.3,14.2-76.7,14.2-106,0
		c-29.3-14.2-29.3-37.3,0-51.6C828,617.5,875.5,617.5,904.8,631.7z"/>
	<rect x="836.8" y="651.2" clip-path="url(#SVGID_2_)" fill="#FFFFFF" width="30" height="14.6"/>
	<g clip-path="url(#SVGID_2_)">
		<polygon fill="#FFFFFF" points="475.6,657.8 472.8,656.4 850.4,472.8 853.2,474.1 		"/>
	</g>
	<g clip-path="url(#SVGID_2_)">
		<polygon fill="#FFFFFF" points="1228,657.8 1230.8,656.4 853.2,472.8 850.4,474.1 		"/>
	</g>
	<g clip-path="url(#SVGID_2_)">
		<path fill="#549A00" d="M635,882.6c-20,0-36.2,7.9-36.2,17.6c0,9.7,16.2,17.6,36.2,17.6c20,0,36.2-7.9,36.2-17.6
			C671.2,890.5,655,882.6,635,882.6z"/>
		<path fill="#FFFFFF" d="M635,881.3c-21.4,0-38.8,8.5-38.8,18.9s17.4,18.9,38.8,18.9c21.4,0,38.8-8.5,38.8-18.9
			S656.5,881.3,635,881.3z M635,917.8c-20,0-36.2-7.9-36.2-17.6c0-9.7,16.2-17.6,36.2-17.6c20,0,36.2,7.9,36.2,17.6
			C671.2,909.9,655,917.8,635,917.8z"/>
		<path fill="#549A00" d="M1101.1,900.2c0-9.7-16.2-17.6-36.2-17.6c-20,0-36.2,7.9-36.2,17.6c0,9.7,16.2,17.6,36.2,17.6
			C1084.9,917.8,1101.1,909.9,1101.1,900.2z"/>
		<path fill="#FFFFFF" d="M1065,881.3c-21.4,0-38.8,8.5-38.8,18.9s17.4,18.9,38.8,18.9s38.8-8.5,38.8-18.9S1086.4,881.3,1065,881.3z
			 M1028.8,900.2c0-9.7,16.2-17.6,36.2-17.6c20,0,36.2,7.9,36.2,17.6c0,9.7-16.2,17.6-36.2,17.6
			C1045,917.8,1028.8,909.9,1028.8,900.2z"/>
	</g>
	<g clip-path="url(#SVGID_2_)">
		<polygon fill="#FFFFFF" points="513.8,773 511,771.6 550.6,752.3 491.2,723.4 451.6,742.7 448.8,741.3 491.2,720.7 556.2,752.3 		
			"/>
	</g>
	<g clip-path="url(#SVGID_2_)">
		<polygon fill="#FFFFFF" points="1186.2,773 1189,771.6 1149.4,752.3 1208.8,723.4 1248.4,742.7 1251.2,741.3 1208.8,720.7 
			1143.8,752.3 		"/>
	</g>
	<polygon clip-path="url(#SVGID_2_)" fill="#DAD6C4" points="-43.6,748.1 563.9,1043.6 -43.6,1043.6 	"/>
	<polygon clip-path="url(#SVGID_2_)" fill="#DAD6C4" points="1743.6,748.1 1136.1,1043.6 1743.6,1043.6 	"/>
	<path clip-path="url(#SVGID_2_)" fill="#F0AB1D" d="M1700,704.5l681.6-333.3l-155.8-75.8l0,0c16.9,8.2,34.1,16.6,51.7,25.1v0
		l-208.8,101.1l-1217,589l-1217-589L-574,320.6v0c16.3-8,32.4-15.7,48.1-23.4v0l-155.8,75.8L0,704.5L607.5,1000l85,41.4l0,0
		c88,42.8,230.6,42.8,318.6,0l0,0l0,0l84.6-41.4L1700,704.5z"/>
</g>
</svg>
